<svg width="30" height="30" viewBox="0 0 100 100" fill="none" xmlns="http://www.w3.org/2000/svg">
<g clip-path="url(#clip0_1358_99)">
<path d="M97.4231 44.2134H48.9765C42.819 44.2134 37.8098 49.223 37.8098 55.3802C37.8098 60.1966 40.8753 64.3108 45.1575 65.8742L38.5103 70.0633L17.1172 56.5814C11.9083 53.2997 4.99937 54.8658 1.71668 60.075C-1.56635 65.2842 0.00112065 72.1932 5.20999 75.4759L32.5566 92.7098C36.1938 95.0019 40.8244 95.0036 44.4641 92.7098L85.9781 66.5469H97.4231C98.8467 66.5469 100 65.3931 100 63.97V46.7903C100 45.3672 98.8467 44.2134 97.4231 44.2134ZM94.8462 61.393H85.2338C84.7477 61.393 84.2711 61.5305 83.8598 61.7899L41.7161 88.3496C39.7583 89.5838 37.2641 89.5848 35.3046 88.3496L7.95805 71.1157C5.15295 69.3479 4.30909 65.6278 6.07653 62.8231C7.84466 60.0183 11.5647 59.1748 14.3695 60.9419L37.1363 75.2896C37.9757 75.8188 39.045 75.8188 39.8844 75.2896L53.7566 66.5473H58.426C59.8495 66.5473 61.003 65.3935 61.003 63.9703C61.003 62.5472 59.8495 61.3934 58.426 61.3934C53.1003 61.3934 54.2462 61.3934 48.9765 61.3934C45.6612 61.3934 42.9636 58.6958 42.9636 55.3805C42.9636 52.0652 45.6612 49.3676 48.9765 49.3676H94.8462V61.393Z" fill="#3AA88E"/>
<path d="M8.77714 10.7247H18.3977V24.2533C18.3977 25.6765 19.5512 26.8303 20.9747 26.8303H47.0878C48.5113 26.8303 49.6647 25.6765 49.6647 24.2533V10.7247H52.9289V24.6474C50.3852 25.7352 48.5979 28.2617 48.5979 31.1984C48.5979 35.1253 51.7926 38.3204 55.7195 38.3204C59.6464 38.3204 62.8412 35.1256 62.8412 31.1984C62.8412 28.1009 60.8497 25.4662 58.0827 24.4883V10.7247H59.2853C60.7088 10.7247 61.8623 9.57091 61.8623 8.14775C61.8623 6.72459 60.7088 5.5708 59.2853 5.5708C53.069 5.5708 15.0285 5.5708 8.77714 5.5708C7.35364 5.5708 6.2002 6.72459 6.2002 8.14775C6.2002 9.57091 7.35364 10.7247 8.77714 10.7247ZM55.7192 29.2306C56.8042 29.2306 57.6869 30.1133 57.6869 31.1984C57.6873 32.2834 56.8042 33.1665 55.7192 33.1665C54.6344 33.1665 53.7514 32.2838 53.7514 31.1984C53.7514 30.1133 54.6341 29.2306 55.7192 29.2306ZM23.5516 10.7247H44.5108V21.6764H23.5516V10.7247V10.7247Z" fill="#3AA88E"/>
</g>
<defs>
<clipPath id="clip0_1358_99">
<rect width="100" height="100" fill="white"/>
</clipPath>
</defs>
</svg>
