<svg width="30" height="30" viewBox="0 0 100 100" fill="none" xmlns="http://www.w3.org/2000/svg">
<g clip-path="url(#clip0_1358_37)">
<path d="M59.9575 2.90351C58.2286 1.0584 55.7868 0 53.2579 0H46.6408C44.1123 0 41.6705 1.0584 39.9416 2.90351C38.2125 4.74901 37.3154 7.25428 37.4802 9.77752L37.7744 14.2871L38.4611 24.8175C38.7181 28.7607 40.9388 32.2517 44.4011 34.1564C46.1382 35.1116 48.0437 35.5892 49.9494 35.5892C51.855 35.5892 53.7607 35.1115 55.498 34.1562C58.9605 32.2519 61.181 28.7607 61.438 24.8175L62.2228 12.7842L62.4189 9.77772C62.5831 7.25448 61.6862 4.74901 59.9575 2.90351ZM41.6171 11.9908L41.4558 9.51854C41.3615 8.06932 41.8562 6.68729 42.8492 5.62753C43.8419 4.56776 45.1888 3.98417 46.641 3.98417H52.4624L51.165 7.44413C50.8406 7.94119 48.5124 11.1103 41.6171 11.9908ZM57.4624 24.5585C57.2943 27.1371 55.8421 29.4199 53.5781 30.6654C51.3056 31.915 48.5927 31.9148 46.3212 30.6656C44.057 29.4199 42.6046 27.1371 42.4367 24.5585L41.8767 15.9709C47.2986 15.3209 50.6173 13.4047 52.5204 11.7799C52.963 12.1533 53.4947 12.5008 54.1134 12.8207C54.9923 13.2748 56.3187 13.7285 58.1382 14.197L57.4624 24.5585ZM58.4433 9.51854L58.4025 10.1439C56.9603 9.74236 56.263 9.44705 55.9425 9.28162C55.3993 9.00096 55.1163 8.77283 54.9743 8.63241L56.3382 4.99491C56.5907 5.18222 56.8294 5.39257 57.0499 5.62772C58.0429 6.68749 58.5378 8.06932 58.4433 9.51854Z" fill="#3AA88E"/>
<path d="M79.2244 57.1656L78.1283 51.1166C76.8308 43.9549 71.1574 38.2389 64.0104 36.8934C62.9311 36.69 61.8276 36.5869 60.7301 36.5869H56.258C55.7285 36.5869 55.2209 36.7978 54.8471 37.1727L49.9346 42.1017L44.9006 37.1578C44.5282 36.792 44.027 36.5871 43.5047 36.5871H39.1688C38.0711 36.5871 36.9674 36.6902 35.8883 36.8936C35.8881 36.8936 35.8878 36.8937 35.8876 36.8937C28.7411 38.24 23.0679 43.9555 21.7704 51.1168L20.6745 57.166C20.5692 57.7468 20.7272 58.3447 21.1056 58.7978C21.4843 59.2507 22.0442 59.5128 22.6347 59.5128H77.264C77.8545 59.5128 78.4144 59.2509 78.7931 58.7978C79.1717 58.3443 79.3297 57.7466 79.2244 57.1656ZM42.6903 40.5707L48.5539 46.3295C49.3348 47.0963 50.5879 47.0894 51.3608 46.3146L57.0854 40.5709H59.1047L49.9498 49.726L40.7948 40.5709H42.6903V40.5707ZM25.0204 55.5287L25.6909 51.8267C26.6346 46.6172 30.5673 42.3953 35.6258 41.0365L48.5411 53.9517C48.9301 54.3406 49.4399 54.5351 49.9496 54.5351C50.4594 54.5351 50.9692 54.3406 51.3582 53.9517L64.2733 41.0365C69.3322 42.3953 73.2644 46.6172 74.2082 51.8265C74.2082 51.8265 74.2082 51.8265 74.2082 51.8267L74.8789 55.5287H25.0204V55.5287Z" fill="#3AA88E"/>
<path d="M58.0465 68.2822H56.8318C55.7318 68.2822 54.8398 69.1742 54.8398 70.2742C54.8398 71.3742 55.7318 72.2662 56.8318 72.2662H58.0463C59.1463 72.2662 60.0383 71.3742 60.0383 70.2742C60.0383 69.1742 59.1465 68.2822 58.0465 68.2822Z" fill="#3AA88E"/>
<path d="M51.9417 85.3567V65.2132C51.9417 64.1132 51.0497 63.2212 49.9497 63.2212C48.8497 63.2212 47.9577 64.1132 47.9577 65.2132V68.2821H18.3193C13.2861 68.2821 9.1914 72.377 9.1914 77.4098V85.3565C6.04355 86.2301 3.72559 89.1194 3.72559 92.542C3.72559 96.6541 7.07109 99.9998 11.1834 99.9998C15.2957 99.9998 18.6412 96.6541 18.6412 92.542C18.6412 89.1198 16.3232 86.2305 13.1754 85.3567V77.41C13.1754 74.5737 15.483 72.2665 18.3191 72.2665H47.9575V85.3569C44.8097 86.2305 42.4917 89.1198 42.4917 92.5424C42.4917 96.6547 45.8374 100 49.9495 100C54.0616 100 57.4073 96.6545 57.4073 92.5424C57.4075 89.1196 55.0895 86.2303 51.9417 85.3567ZM14.657 92.542C14.657 94.4575 13.0988 96.0157 11.1834 96.0157C9.26796 96.0157 7.70976 94.4573 7.70976 92.542C7.70976 90.6266 9.26815 89.0684 11.1834 89.0684C13.0986 89.0684 14.657 90.6266 14.657 92.542ZM49.9497 96.0159C48.0343 96.0159 46.4761 94.4575 46.4761 92.5422C46.4761 90.6268 48.0345 89.0686 49.9497 89.0686C51.8651 89.0686 53.4233 90.6268 53.4233 92.5422C53.4233 94.4577 51.8651 96.0159 49.9497 96.0159Z" fill="#3AA88E"/>
<path d="M90.7074 85.3279V77.4099C90.7074 72.3769 86.6126 68.2822 81.5795 68.2822H65.1316C64.0316 68.2822 63.1396 69.1742 63.1396 70.2742C63.1396 71.3742 64.0316 72.2662 65.1316 72.2662H81.5795C84.4158 72.2662 86.7232 74.5736 86.7232 77.4097V85.3853C83.6269 86.2925 81.3588 89.1562 81.3588 92.5419C81.3588 96.6542 84.7043 99.9997 88.8165 99.9997C92.9288 99.9997 96.2743 96.654 96.2743 92.5419C96.2743 89.083 93.9068 86.1672 90.7074 85.3279ZM88.8164 96.016C86.9009 96.016 85.3427 94.4576 85.3427 92.5423C85.3427 90.6269 86.9009 89.0687 88.8164 89.0687C90.7318 89.0687 92.29 90.6269 92.29 92.5423C92.29 94.4578 90.7318 96.016 88.8164 96.016Z" fill="#3AA88E"/>
</g>
<defs>
<clipPath id="clip0_1358_37">
<rect width="100" height="100" fill="white"/>
</clipPath>
</defs>
</svg>
