<svg width="125" height="131" viewBox="0 0 125 131" fill="none" xmlns="http://www.w3.org/2000/svg">
<path d="M0.867188 96.444V121.809C0.867188 126.482 5.47727 130.263 11.1745 130.263H114.249C119.946 130.263 124.556 126.482 124.556 121.809V96.444C124.556 82.4325 110.727 71.0791 93.6344 71.0791H90.9911C89.6048 71.0791 88.4936 72.0036 88.3607 73.1354C87.0999 83.8455 76.0986 92.2167 62.7113 92.2167C49.324 92.2167 38.3229 83.8455 37.0629 73.1354C36.93 72.0036 35.8188 71.0791 34.4322 71.0791H31.7889C14.7171 71.0791 0.867188 82.4325 0.867188 96.444Z" fill="#252C68"/>
<path d="M62.7098 69.7586C83.1832 69.7586 99.7869 54.1952 99.7869 34.9999C99.7869 15.8046 83.1832 0.242188 62.7098 0.242188C42.2365 0.242188 25.6328 15.8053 25.6328 35.0008C25.6328 54.1961 42.2365 69.7586 62.7098 69.7586ZM62.7098 35.0008C72.3831 35.0008 80.4524 30.9871 82.9964 25.5308C86.8037 29.294 89.1932 34.0673 89.1932 39.346C89.1932 51.3451 77.327 61.0697 62.7098 61.0697C48.0817 61.0697 36.2264 51.3451 36.2264 39.346C36.2264 34.0673 53.0366 35.0008 62.7098 35.0008Z" fill="#252C68"/>
</svg>
