<svg width="30" height="30" viewBox="0 0 120 120" fill="none" xmlns="http://www.w3.org/2000/svg">
<path d="M109.525 3.93018H51.9031C50.4669 3.93018 49.3027 5.09431 49.3027 6.53056V26.7925L52.1867 25.0019C52.9205 24.546 53.7043 24.2385 54.5033 24.0695V9.13095H106.925V46.6346H54.5035V40.5667L49.3027 43.7959V49.2352C49.3027 50.6715 50.4669 51.8356 51.9031 51.8356H109.525C110.961 51.8356 112.126 50.6715 112.126 49.2352V6.53056C112.126 5.09431 110.961 3.93018 109.525 3.93018Z" fill="#259EA6"/>
<path d="M71.7185 18.3649C71.0343 17.4972 69.7767 17.3488 68.9092 18.0325L59.9521 25.0949C60.8074 25.6539 61.5576 26.4027 62.1321 27.3278C62.295 27.5896 62.4363 27.8589 62.5619 28.1319L71.3863 21.1741C72.254 20.4902 72.4026 19.2323 71.7185 18.3649Z" fill="#259EA6"/>
<path d="M28.4848 14.9695C32.6185 14.9695 35.9695 11.6185 35.9695 7.48475C35.9695 3.35104 32.6185 0 28.4848 0C24.351 0 21 3.35104 21 7.48475C21 11.6185 24.351 14.9695 28.4848 14.9695Z" fill="#259EA6"/>
<path d="M59.0644 29.2331C58.0123 27.5388 55.7862 27.018 54.0914 28.0699L46.7775 32.6109C46.7471 26.5455 46.7633 29.7644 46.7438 25.8583C46.7201 21.1697 42.8865 17.355 38.1976 17.355H34.6447C31.6093 25.2272 32.5871 22.305 30.0106 28.987L31.0941 24.2688C31.1691 23.9154 31.1148 23.5469 30.9406 23.2305L29.4725 20.5603L30.7754 18.191C30.9697 17.8376 30.7135 17.4044 30.3102 17.4044H26.731C26.3279 17.4044 26.0713 17.8376 26.2658 18.191L27.5713 20.5652L26.1003 23.2404C25.9297 23.5509 25.8739 23.9118 25.9428 24.2592L26.8815 28.987C26.3755 27.6747 22.8774 18.6028 22.3963 17.355H18.7714C14.0828 17.355 10.2489 21.1694 10.2252 25.8583L10.0918 52.3895C10.082 54.3841 11.6905 56.009 13.685 56.0191C13.6914 56.0191 13.6972 56.0191 13.7036 56.0191C15.6894 56.0191 17.3045 54.4141 17.3143 52.4259L17.4477 25.8947C17.4477 25.8904 17.4477 25.8862 17.4477 25.8822C17.4533 25.4885 17.7756 25.173 18.1693 25.1761C18.5631 25.1789 18.8804 25.499 18.8804 25.8928L18.8821 63.482C22.1881 63.3414 25.2514 64.5339 27.5495 66.628V51.9637H29.4205V68.7854C30.7384 70.7232 31.5097 73.0611 31.5097 75.5762C31.5097 77.8677 30.8694 80.0124 29.7591 81.8413C30.8996 81.8467 32.0073 81.9981 33.0636 82.2774C34.4877 81.042 36.2007 80.1327 38.0879 79.6674C38.0879 14.1968 38.0094 54.6768 38.0094 25.8977C38.0094 25.4807 38.3466 25.1428 38.7636 25.1421C39.1805 25.1411 39.5192 25.4777 39.5211 25.8947C39.5337 28.4275 39.5736 36.3454 39.5874 39.1019C39.594 40.4095 40.3069 41.6116 41.4514 42.2442C42.5937 42.8756 43.9908 42.8427 45.1036 42.1518L57.9014 34.2058C59.5955 33.1542 60.1165 30.9274 59.0644 29.2331Z" fill="#259EA6"/>
<path d="M100.598 83.5858C104.974 83.5858 108.521 80.0388 108.521 75.6633C108.521 71.2878 104.974 67.7407 100.598 67.7407C96.2228 67.7407 92.6758 71.2878 92.6758 75.6633C92.6758 80.0388 96.2228 83.5858 100.598 83.5858Z" fill="#259EA6"/>
<path d="M119.873 95.1118C119.848 90.1486 115.79 86.1108 110.827 86.1108C108.685 86.1108 92.8775 86.1108 90.9561 86.1108C91.8085 87.7674 92.293 89.6426 92.293 91.6304C92.293 93.7409 91.7293 95.9459 90.5352 97.9074C94.9658 98.0864 98.848 100.464 101.117 103.977H110.628V95.2043C110.628 94.7726 110.97 94.4187 111.401 94.4039C111.833 94.3892 112.199 94.7192 112.228 95.1497C112.228 95.1497 112.228 95.15 112.228 95.1502L112.272 103.977H119.918L119.873 95.1118Z" fill="#259EA6"/>
<path d="M68.0783 91.6302C68.0783 89.6077 68.5794 87.7013 69.4597 86.0239C64.3013 86.0239 58.2444 86.0239 51.819 86.0239C52.6328 87.6503 53.0933 89.4824 53.0933 91.4213C53.0933 93.6997 52.4535 95.8571 51.3428 97.6864C54.9892 97.7037 58.3534 99.2187 60.7841 101.733C63.1405 99.4313 66.3526 98.0035 69.8863 97.9845C68.6593 96.0036 68.0783 93.7794 68.0783 91.6302Z" fill="#259EA6"/>
<path d="M62.0664 67.6533C57.691 67.6533 54.1436 71.1999 54.1436 75.5759C54.1436 79.9418 57.6843 83.4984 62.0664 83.4984C66.4065 83.4984 69.9889 79.991 69.9889 75.5759C69.9889 71.2048 66.4487 67.6533 62.0664 67.6533Z" fill="#259EA6"/>
<path d="M28.8792 91.4212C28.8792 89.4871 29.3376 87.6588 30.1474 86.0352C29.8059 86.0184 31.2424 86.0238 9.1744 86.0238C4.23659 86.0238 0.153086 90.0405 0.128008 95.0247L0.0830078 103.977C3.57683 103.977 4.27972 103.977 7.72854 103.977L7.77331 95.0634C7.77565 94.6218 8.13448 94.266 8.57557 94.2672C9.01666 94.2686 9.37338 94.6263 9.37338 95.0673V103.977H20.0906C22.4004 100.285 26.3719 97.9661 30.6944 97.788C29.5212 95.8984 28.8792 93.7181 28.8792 91.4212Z" fill="#259EA6"/>
<path d="M19.403 67.6533C15.0277 67.6533 11.4805 71.2003 11.4805 75.5759C11.4805 79.9315 15.0069 83.4984 19.403 83.4984C23.7474 83.4984 27.3258 79.9793 27.3258 75.5759C27.3258 71.2001 23.7786 67.6533 19.403 67.6533Z" fill="#259EA6"/>
<path d="M99.031 111.048C99.0063 106.085 94.9482 102.047 89.9848 102.047C89.4584 102.047 70.539 102.047 69.9441 102.047C64.981 102.047 60.6627 106.084 60.6376 111.048L60.5731 110.839C60.5485 105.895 56.5088 101.838 51.527 101.838C45.7745 101.838 37.5125 101.838 31.4863 101.838C26.5232 101.838 22.2048 105.875 22.1798 110.839L22.1348 120H29.7803L29.8251 110.877C29.8269 110.497 30.1361 110.191 30.516 110.191C30.8959 110.192 31.2032 110.501 31.2032 110.881V120C35.6847 120 47.2539 120 51.4513 120V110.881C51.4513 110.474 51.7806 110.144 52.1874 110.143C52.5941 110.142 52.9255 110.47 52.9276 110.877L52.9724 120C54.5354 120 66.6219 120 68.2381 120L68.2829 111.086C68.2829 111.086 68.2829 111.086 68.2829 111.086C68.285 110.706 68.5941 110.399 68.9741 110.4C69.354 110.401 69.661 110.71 69.661 111.09V120C74.1425 120 85.7117 120 89.9091 120V111.09C89.9091 110.683 90.2384 110.353 90.6453 110.352C91.0519 110.351 91.3833 110.679 91.3854 111.086L91.4302 119.999H99.0757L99.031 111.048Z" fill="#259EA6"/>
<path d="M41.2349 99.4053C45.6615 99.4053 49.25 95.8168 49.25 91.3901C49.25 86.9635 45.6615 83.375 41.2349 83.375C36.8082 83.375 33.2197 86.9635 33.2197 91.3901C33.2197 95.8168 36.8082 99.4053 41.2349 99.4053Z" fill="#259EA6"/>
<path d="M80.1724 99.6138C84.599 99.6138 88.1875 96.0253 88.1875 91.5986C88.1875 87.172 84.599 83.5835 80.1724 83.5835C75.7457 83.5835 72.1572 87.172 72.1572 91.5986C72.1572 96.0253 75.7457 99.6138 80.1724 99.6138Z" fill="#259EA6"/>
</svg>
