<svg width="23" height="15" viewBox="0 0 23 15" fill="none" xmlns="http://www.w3.org/2000/svg">
<path d="M15.4838 10.0369C15.2722 10.0369 15.1029 10.1412 15.0793 10.2792C14.8959 11.4632 13.3626 12.3866 11.4953 12.3866C9.63272 12.3866 8.09939 11.4632 7.91125 10.2792C7.88773 10.1442 7.71841 10.0369 7.50675 10.0369H2.61514C1.58978 10.0369 0.757263 10.5798 0.757263 11.2485V13.7884C0.757263 14.4571 1.58978 15.0001 2.61514 15.0001H20.3849C21.4102 15.0001 22.2427 14.4571 22.2427 13.7884V11.2516C22.2427 10.5829 21.4102 10.0399 20.3849 10.0399H15.4838V10.0369Z" fill="#014C3D"/>
<path d="M14.275 6.09202L12.8217 7.03988V0.861963C12.8217 0.386503 12.229 0 11.5 0C10.7709 0 10.1783 0.386503 10.1783 0.861963V7.03988L8.72493 6.09202C8.2781 5.80061 7.56317 5.72699 7.03638 5.95706C6.31675 6.26994 6.24619 6.91104 6.82472 7.28834L10.7192 9.82822C11.1519 10.1104 11.8527 10.1104 12.2855 9.82822L16.1799 7.28834C16.7585 6.91104 16.6879 6.26994 15.9683 5.95706C15.4368 5.72393 14.7219 5.79755 14.275 6.09202Z" fill="#014C3D"/>
</svg>
