<svg width="30" height="30" viewBox="0 0 120 127" fill="none" xmlns="http://www.w3.org/2000/svg">
<g filter="url(#filter0_d_1358_532)">
<path d="M15.7289 118.659C12.9959 116.967 12.0389 114.591 12.0479 111.327C12.1469 77.1271 12.1049 42.9001 12.1109 8.68806C12.1109 3.03306 13.7999 1.35906 19.4519 1.35606C31.9709 1.35606 44.4929 1.29606 57.0119 1.43106C58.6014 1.49906 60.1215 2.10158 61.3259 3.14106C70.3229 11.4151 79.1999 19.8241 88.0919 28.2001C92.2319 32.1001 92.2199 32.1001 87.4919 36.0451C87.3689 34.8961 87.2639 33.9031 87.1109 32.4781H82.6109C76.6439 32.4781 70.6769 32.5111 64.7099 32.4781C59.9909 32.4421 57.9809 30.3961 57.9569 25.6201C57.9209 18.8881 57.9569 12.1561 57.9569 5.18706C56.9249 5.10906 56.0819 4.98906 55.2389 4.98906C43.3049 4.98906 31.3709 5.04006 19.4369 4.93506C16.6529 4.91106 15.6809 5.80506 15.6869 8.66406C15.7649 42.8761 15.7649 77.0881 15.6869 111.3C15.6869 114.093 16.5179 115.107 19.3679 115.095C40.7899 115.015 62.2119 115.015 83.6339 115.095C86.4749 115.095 87.3809 114.087 87.3479 111.306C87.2249 101.532 87.4139 91.7551 87.2339 81.9841C87.1769 78.9661 87.9089 76.6531 90.9059 74.6341V77.8651C90.9059 88.9111 90.7949 99.9601 90.9749 111.003C91.0289 114.345 90.1439 116.862 87.3419 118.668L15.7289 118.659ZM61.5539 8.31906C61.5539 14.6851 61.5809 20.2381 61.5539 25.7881C61.5539 28.0561 62.6609 28.9081 64.8209 28.8901C69.8009 28.8451 74.7839 28.8901 79.7639 28.8901H83.4629L61.5539 8.31906Z" fill="#259EA6"/>
<path d="M107.952 47.556C107.052 49.191 106.518 50.694 105.552 51.807C91.2179 68.233 76.8439 84.621 62.4299 100.971C61.7201 101.764 60.8471 102.393 59.8709 102.816C55.0169 104.871 50.1419 106.881 45.2189 108.759C44.2619 109.125 42.8189 109.212 42.0479 108.729C41.5529 108.429 41.6249 106.764 41.8559 105.81C43.0739 100.786 44.3739 95.786 45.7559 90.81C46.0754 89.6873 46.6365 88.648 47.3999 87.765C61.7259 71.337 76.0799 54.937 90.4619 38.565C93.1619 35.481 96.0269 35.295 99.1619 37.911C101.262 39.666 103.413 41.385 105.312 43.341C106.38 44.448 107.004 46.005 107.952 47.556ZM98.3249 54.51L88.5389 46.35L50.6999 89.481L60.4949 97.629L98.3249 54.51ZM90.9569 43.587L100.761 51.75C101.745 49.752 105.414 48.924 102.777 46.011C100.92 44.018 98.84 42.2444 96.5789 40.725C95.8649 40.23 94.2959 40.485 93.3689 40.926C92.4899 41.343 91.9409 42.45 90.9569 43.587ZM49.0199 92.853L45.9809 104.526L57.3809 99.87L49.0199 92.853Z" fill="#259EA6"/>
<path d="M74.3275 50.9998C72.9595 53.7748 71.1295 54.6658 68.3035 54.6328C55.2985 54.4798 42.2875 54.5698 29.2795 54.5578C28.3075 54.5578 27.2665 54.6538 26.3845 54.3418C25.8055 54.1348 25.1155 53.2798 25.1065 52.7068C25.0975 52.1338 25.7815 51.4138 26.3455 51.0238C26.7655 50.7238 27.4765 50.8168 28.0555 50.8168C43.0235 50.8168 57.9885 50.8168 72.9505 50.8168C73.4125 50.8527 73.8722 50.9138 74.3275 50.9998Z" fill="#259EA6"/>
<path d="M67.8843 58.3018C66.6573 60.8308 65.1483 61.9198 62.3733 61.8778C51.1623 61.7098 39.9483 61.8088 28.7343 61.8058C28.0503 61.8058 27.2643 61.9918 26.7153 61.7158C26.0463 61.3768 25.0383 60.4948 25.1433 60.1108C25.3413 59.3848 26.1633 58.7548 26.8563 58.2658C27.1833 58.0318 27.8043 58.2058 28.2903 58.2058C40.7703 58.2058 53.2513 58.2058 65.7333 58.2058C66.3753 58.1998 67.0173 58.2628 67.8843 58.3018Z" fill="#259EA6"/>
<path d="M61.4997 65.4781C60.1227 68.3671 58.3467 69.3421 55.5147 69.2821C46.7457 69.1021 37.9677 69.2191 29.1957 69.2131C28.3197 69.2131 27.3447 69.3781 26.5977 69.0511C25.9377 68.7661 25.0977 67.8901 25.1277 67.2931C25.1577 66.6961 26.0937 66.1081 26.6667 65.5501C26.7777 65.4451 27.0417 65.4811 27.2367 65.4811L61.4997 65.4781Z" fill="#259EA6"/>
<path d="M45.9783 21.4982C45.9596 23.4233 45.1951 25.2661 43.8456 26.6391C42.4961 28.0121 40.6668 28.8083 38.7423 28.8602C37.7647 28.864 36.7962 28.6723 35.8938 28.2963C34.9914 27.9202 34.1732 27.3676 33.4876 26.6707C32.8019 25.9739 32.2625 25.1469 31.9011 24.2385C31.5398 23.3301 31.3637 22.3587 31.3833 21.3812C31.3895 20.4286 31.5847 19.4866 31.9576 18.6099C32.3305 17.7332 32.8737 16.9392 33.5556 16.274C34.2376 15.6087 35.0449 15.0855 35.9305 14.7345C36.8162 14.3835 37.7628 14.2118 38.7153 14.2292C40.6412 14.234 42.4867 15.0016 43.8479 16.3639C45.2091 17.7262 45.9751 19.5724 45.9783 21.4982ZM42.2403 21.8192C42.2733 19.4822 40.5903 17.7032 38.5623 17.8742C36.4443 18.0512 35.1453 19.2332 35.0613 21.4502C34.9833 23.5292 36.6993 25.3022 38.7363 25.1372C40.8603 24.9662 42.1083 23.7692 42.2403 21.8192Z" fill="#259EA6"/>
<path d="M55.0564 72.8698C53.7364 75.5698 52.1224 76.6139 49.3834 76.5389C42.1834 76.3379 34.9564 76.5389 27.7444 76.3889C26.8264 76.3709 25.9444 75.2429 25.0264 74.6309C25.8604 74.0309 26.6854 72.9599 27.5254 72.9479C36.5824 72.8249 45.6424 72.8698 55.0564 72.8698Z" fill="#259EA6"/>
<path d="M48.6209 80.1242C47.2619 83.0372 45.4949 84.0722 42.6629 83.9432C37.7999 83.7182 32.9129 83.9882 28.0469 83.7932C27.0119 83.7512 26.0189 82.6112 25.0049 81.9782C26.0309 81.3602 27.0449 80.2322 28.0859 80.2082C34.7999 80.0462 41.4989 80.1242 48.6209 80.1242Z" fill="#259EA6"/>
<path d="M48.1469 27.2788C51.1949 29.0368 52.9049 31.5688 53.2109 34.8448C53.4389 37.5731 53.4389 40.3156 53.2109 43.0438C53.1539 43.8298 52.1009 44.5438 51.5039 45.2878C50.9039 44.5558 49.9229 43.8868 49.7819 43.0768C49.5089 41.4598 49.6319 39.7618 49.7069 38.1058C49.8569 34.7848 49.2389 31.8448 45.7559 30.0898L48.1469 27.2788Z" fill="#259EA6"/>
<path d="M29.1689 27.3271L31.4999 30.0001C28.1339 31.8901 27.3989 34.8602 27.5999 38.2982C27.7326 40.0514 27.6985 41.8133 27.4979 43.5602C27.4109 44.1961 26.5439 45.0272 25.8899 45.1892C25.4219 45.3062 24.4139 44.5891 24.1619 44.0101C21.9869 39.1141 24.5999 30.3421 29.1689 27.3271Z" fill="#259EA6"/>
<path d="M40.4309 94.8001C40.7309 97.7701 39.6899 98.7451 37.1159 98.5891C33.8159 98.3851 30.4799 98.6401 27.1769 98.4331C26.4179 98.3851 25.7279 97.2661 25.0049 96.6331C25.7399 96.0331 26.4539 94.9081 27.2099 94.8781C31.5749 94.7161 35.9519 94.8001 40.4309 94.8001Z" fill="#259EA6"/>
<path d="M42.7804 87.543C42.4444 88.821 42.1804 89.829 41.8384 91.119C36.8674 91.119 31.9234 91.185 26.9854 91.044C26.3164 91.026 25.6774 89.985 25.0264 89.418C25.7164 88.791 26.3944 87.645 27.1024 87.618C32.2444 87.471 37.3954 87.543 42.7804 87.543Z" fill="#259EA6"/>
<path d="M69.9629 98.5081C71.3939 95.6431 73.1459 94.1371 75.9269 94.8811C76.7219 95.0911 77.3039 96.1171 77.9819 96.7681C77.3279 97.3471 76.7249 98.3371 76.0049 98.4301C74.1359 98.6671 72.2189 98.5081 69.9629 98.5081Z" fill="#259EA6"/>
</g>
<defs>
<filter id="filter0_d_1358_532" x="-4" y="0" width="128" height="128" filterUnits="userSpaceOnUse" color-interpolation-filters="sRGB">
<feFlood flood-opacity="0" result="BackgroundImageFix"/>
<feColorMatrix in="SourceAlpha" type="matrix" values="0 0 0 0 0 0 0 0 0 0 0 0 0 0 0 0 0 0 127 0" result="hardAlpha"/>
<feOffset dy="4"/>
<feGaussianBlur stdDeviation="2"/>
<feComposite in2="hardAlpha" operator="out"/>
<feColorMatrix type="matrix" values="0 0 0 0 0 0 0 0 0 0 0 0 0 0 0 0 0 0 0.25 0"/>
<feBlend mode="normal" in2="BackgroundImageFix" result="effect1_dropShadow_1358_532"/>
<feBlend mode="normal" in="SourceGraphic" in2="effect1_dropShadow_1358_532" result="shape"/>
</filter>
</defs>
</svg>
