<svg width="133" height="131" viewBox="0 0 133 131" fill="none" xmlns="http://www.w3.org/2000/svg">
<path d="M105.14 89.3655C99.7891 87.6883 90.4736 82.855 88.8779 82.1084C88.4641 81.8998 87.9854 81.7778 87.4717 81.7778C86.3523 81.7778 85.3888 82.3499 84.9396 83.1749C80.5275 89.5945 72.3477 108.261 66.6396 108.607C60.9314 108.261 52.752 89.5942 48.3392 83.1749C47.8904 82.3494 46.9266 81.7778 45.8068 81.7778C45.2938 81.7778 44.8148 81.8998 44.4009 82.1084C42.8052 82.855 33.49 87.6883 28.1387 89.3655C10.1761 94.9942 2.09766 100.734 2.09766 104.649C2.09766 108.558 2.09766 130.291 2.09766 130.291H66.6396H131.181C131.181 130.291 131.181 108.558 131.181 104.649C131.181 100.734 123.103 94.994 105.14 89.3655Z" fill="#EB305D"/>
<path d="M132.149 68.3039C123.9 51.9277 137.304 40.9681 103.673 31.4889C104.34 16.3957 87.9468 0.269798 68.1181 0.269798C67.9495 0.269798 67.7828 0.27807 67.6179 0.279671C67.5712 0.279671 67.5249 0.27807 67.4776 0.277002V0.274334C67.4039 0.274334 67.3296 0.269531 67.2547 0.269531C67.231 0.269531 67.2089 0.270599 67.1856 0.270599C67.1623 0.270599 67.1402 0.269531 67.1165 0.269531C67.0554 0.269531 66.9946 0.2722 66.9332 0.272733C66.8727 0.2722 66.811 0.269531 66.7499 0.269531C66.7266 0.269531 66.7042 0.270599 66.6808 0.270599C66.6793 0.270599 66.6775 0.270599 66.6759 0.270599C66.6744 0.270599 66.6725 0.270599 66.671 0.270599C66.648 0.270599 66.6256 0.269531 66.6019 0.269531C66.5411 0.269531 66.4797 0.2722 66.4186 0.272733C66.3578 0.2722 66.297 0.269531 66.2356 0.269531C66.212 0.269531 66.1896 0.270599 66.1662 0.270599C66.1435 0.270599 66.1211 0.269531 66.0972 0.269531C66.0229 0.269531 65.9486 0.274334 65.8743 0.274334V0.277002C65.8273 0.27807 65.7809 0.279671 65.7342 0.279671C65.5691 0.27807 65.4026 0.269798 65.2341 0.269798C45.4053 0.269798 29.0117 16.3957 29.6789 31.4889C-3.95145 40.9679 9.45224 51.9277 1.20339 68.3039C0.990309 68.6958 0.867188 69.1321 0.867188 69.5942C0.867188 71.2646 2.42509 72.6184 4.34684 72.6184C4.72756 72.6184 5.09324 72.5632 5.4362 72.4653C30.5051 66.728 29.8674 56.8731 34.2516 50.5232C34.1555 52.4008 34.1819 54.3719 34.3554 56.4502C34.3554 66.9038 49.6443 78.3133 66.1199 78.3133C66.2206 78.3133 66.3182 78.3058 66.4183 78.3058C66.5043 78.3058 66.5893 78.3114 66.6753 78.3122C66.7613 78.3106 66.8463 78.3058 66.9323 78.3058C67.0321 78.3058 67.1303 78.3133 67.231 78.3133C83.7063 78.3133 98.9952 66.9038 98.9952 56.4502C99.1684 54.3719 99.1948 52.4008 99.099 50.5232C103.483 56.8733 102.845 66.728 127.915 72.4653C128.258 72.5632 128.623 72.6184 129.004 72.6184C130.926 72.6184 132.484 71.2646 132.484 69.5942C132.485 69.1318 132.362 68.6956 132.149 68.3039Z" fill="#EB305D"/>
</svg>
