<svg width="30" height="30" viewBox="0 0 120 120" fill="none" xmlns="http://www.w3.org/2000/svg">
<path d="M112.5 110.625H106.875V67.5H112.5C112.807 67.5005 113.11 67.4255 113.381 67.2816C113.653 67.1378 113.884 66.9295 114.056 66.675C114.228 66.4216 114.334 66.1303 114.367 65.8264C114.399 65.5225 114.357 65.2152 114.244 64.9313L102.994 36.8062C102.855 36.4574 102.615 36.1583 102.304 35.9477C101.993 35.737 101.626 35.6246 101.25 35.625H67.5002C67.413 35.6162 67.325 35.6162 67.2377 35.625L61.8752 30.7875V26.25H78.7502C79.2475 26.25 79.7244 26.0525 80.0761 25.7008C80.4277 25.3492 80.6252 24.8723 80.6252 24.375V13.125C80.6252 12.6277 80.4277 12.1508 80.0761 11.7992C79.7244 11.4475 79.2475 11.25 78.7502 11.25H60.0002C59.503 11.25 59.026 11.4475 58.6744 11.7992C58.3228 12.1508 58.1252 12.6277 58.1252 13.125V30.7875L52.7627 35.625C52.6755 35.6162 52.5875 35.6162 52.5002 35.625H18.7502C18.3747 35.6246 18.0077 35.737 17.6968 35.9477C17.3859 36.1583 17.1454 36.4574 17.0065 36.8062L5.75649 64.9313C5.64323 65.2152 5.60111 65.5225 5.63379 65.8264C5.66647 66.1303 5.77296 66.4216 5.94399 66.675C6.11598 66.9295 6.34785 67.1378 6.61921 67.2816C6.89057 67.4255 7.19311 67.5005 7.50024 67.5H13.1252V110.625H7.50024C7.00296 110.625 6.52604 110.823 6.17441 111.174C5.82278 111.526 5.62524 112.003 5.62524 112.5C5.62524 112.997 5.82278 113.474 6.17441 113.826C6.52604 114.177 7.00296 114.375 7.50024 114.375H112.5C112.998 114.375 113.474 114.177 113.826 113.826C114.178 113.474 114.375 112.997 114.375 112.5C114.375 112.003 114.178 111.526 113.826 111.174C113.474 110.823 112.998 110.625 112.5 110.625ZM99.9752 39.375L109.725 63.75H80.6252V48.75C80.6359 48.6127 80.6359 48.4748 80.6252 48.3375C80.6359 48.2378 80.6359 48.1372 80.6252 48.0375C80.5795 47.9537 80.5294 47.8724 80.4752 47.7938C80.3969 47.6685 80.3091 47.5494 80.2127 47.4375L71.2502 39.375H99.9752ZM61.8752 15H76.8752V22.5H61.8752V15ZM20.0252 39.375H48.7502L40.0127 47.3625C39.9211 47.4671 39.8395 47.5801 39.769 47.7C39.7062 47.7831 39.6498 47.8709 39.6002 47.9625C39.5896 48.0559 39.5896 48.1503 39.6002 48.2437C39.5121 48.4064 39.4369 48.5756 39.3752 48.75V63.75H10.2752L20.0252 39.375ZM16.8752 67.5H39.3752V110.625H16.8752V67.5ZM52.5002 110.625V84.375H67.5002V110.625H52.5002ZM71.2502 110.625V82.5C71.2502 82.0027 71.0527 81.5258 70.7011 81.1742C70.3494 80.8225 69.8725 80.625 69.3752 80.625H50.6252C50.128 80.625 49.651 80.8225 49.2994 81.1742C48.9478 81.5258 48.7502 82.0027 48.7502 82.5V110.625H43.1252V49.575L60.0002 34.1437L76.8752 49.575V110.625H71.2502ZM80.6252 110.625V67.5H103.125V110.625H80.6252Z" fill="#259EA6"/>
<path d="M31.875 82.5H24.375C23.8777 82.5 23.4008 82.6975 23.0492 83.0492C22.6975 83.4008 22.5 83.8777 22.5 84.375V91.875C22.5 92.3723 22.6975 92.8492 23.0492 93.2008C23.4008 93.5525 23.8777 93.75 24.375 93.75H31.875C32.3723 93.75 32.8492 93.5525 33.2008 93.2008C33.5525 92.8492 33.75 92.3723 33.75 91.875V84.375C33.75 83.8777 33.5525 83.4008 33.2008 83.0492C32.8492 82.6975 32.3723 82.5 31.875 82.5ZM30 90H26.25V86.25H30V90Z" fill="#259EA6"/>
<path d="M95.625 82.5H88.125C87.6277 82.5 87.1508 82.6975 86.7992 83.0492C86.4475 83.4008 86.25 83.8777 86.25 84.375V91.875C86.25 92.3723 86.4475 92.8492 86.7992 93.2008C87.1508 93.5525 87.6277 93.75 88.125 93.75H95.625C96.1223 93.75 96.5992 93.5525 96.9508 93.2008C97.3025 92.8492 97.5 92.3723 97.5 91.875V84.375C97.5 83.8777 97.3025 83.4008 96.9508 83.0492C96.5992 82.6975 96.1223 82.5 95.625 82.5ZM93.75 90H90V86.25H93.75V90Z" fill="#259EA6"/>
<path d="M60 52.5C58.5166 52.5 57.0666 52.9399 55.8332 53.764C54.5999 54.5881 53.6386 55.7594 53.0709 57.1299C52.5032 58.5003 52.3547 60.0083 52.6441 61.4632C52.9335 62.918 53.6478 64.2544 54.6967 65.3033C55.7456 66.3522 57.082 67.0665 58.5368 67.3559C59.9917 67.6453 61.4997 67.4968 62.8701 66.9291C64.2406 66.3614 65.4119 65.4001 66.236 64.1668C67.0601 62.9334 67.5 61.4834 67.5 60C67.5 58.0109 66.7098 56.1032 65.3033 54.6967C63.8968 53.2902 61.9891 52.5 60 52.5ZM60 63.75C59.2583 63.75 58.5333 63.5301 57.9166 63.118C57.2999 62.706 56.8193 62.1203 56.5355 61.4351C56.2516 60.7498 56.1774 59.9958 56.3221 59.2684C56.4668 58.541 56.8239 57.8728 57.3484 57.3484C57.8728 56.8239 58.541 56.4667 59.2684 56.3221C59.9958 56.1774 60.7498 56.2516 61.4351 56.5355C62.1203 56.8193 62.706 57.2999 63.118 57.9166C63.5301 58.5333 63.75 59.2583 63.75 60C63.75 60.9946 63.3549 61.9484 62.6517 62.6517C61.9484 63.3549 60.9946 63.75 60 63.75Z" fill="#259EA6"/>
</svg>
