<svg width="30" height="30" viewBox="0 0 120 128" fill="none" xmlns="http://www.w3.org/2000/svg">
<g clip-path="url(#clip0_1358_274)" filter="url(#filter0_d_1358_274)">
<path d="M43.8941 38.2354L48.6998 45.8994L57.4738 48.1018L51.6698 55.0407L52.2866 64.0658L43.8941 60.6901L35.5012 64.0658L36.118 55.0407L30.3145 48.1018L39.0885 45.8994L43.8941 38.2354Z" fill="#259EA6"/>
<path d="M35.5019 67.5952C34.7674 67.5952 34.0394 67.3662 33.427 66.9211C32.444 66.2068 31.8975 65.0372 31.9802 63.825L32.5005 56.2161L27.6072 50.3665C26.8279 49.4344 26.5825 48.1669 26.9578 47.0114C27.3333 45.856 28.2766 44.9747 29.4553 44.6789L36.8526 42.8225L40.904 36.3607C41.5495 35.3311 42.6794 34.7061 43.8944 34.7061C45.1094 34.7061 46.2393 35.3311 46.8848 36.3607L50.9362 42.8225L58.3331 44.6789C59.5115 44.9747 60.4549 45.856 60.8306 47.0114C61.2058 48.1669 60.9604 49.4346 60.1811 50.3665L55.2879 56.2165L55.8082 63.8255C55.8911 65.0379 55.3448 66.2075 54.3614 66.9216C53.3782 67.6355 52.0968 67.7942 50.97 67.3409L43.8942 64.4949L36.8182 67.3409C36.3935 67.5111 35.9465 67.5952 35.5019 67.5952ZM36.633 50.1544L38.8258 52.7757C39.4099 53.4746 39.7015 54.372 39.6398 55.2809L39.4068 58.6906L42.5777 57.4151C43.4231 57.0753 44.3665 57.0753 45.2116 57.4151L48.382 58.6904L48.149 55.2809C48.0869 54.372 48.3785 53.4746 48.963 52.7757L51.1558 50.1544L47.8411 49.3226C46.9577 49.1009 46.1939 48.5461 45.7099 47.7743L43.8944 44.8789L42.079 47.7743C41.595 48.5461 40.8314 49.1007 39.9478 49.3226L36.633 50.1544Z" fill="#259EA6"/>
<path d="M89.6861 48.5111H69.5685C67.6197 48.5111 66.0391 46.9309 66.0391 44.9816C66.0391 43.0323 67.6195 41.4521 69.5685 41.4521H89.6861C91.6349 41.4521 93.2155 43.0323 93.2155 44.9816C93.2155 46.9309 91.6354 48.5111 89.6861 48.5111Z" fill="#259EA6"/>
<path d="M82.6227 60.8489H69.5685C67.6197 60.8489 66.0391 59.2688 66.0391 57.3195C66.0391 55.3702 67.6195 53.79 69.5685 53.79H82.6227C84.5716 53.79 86.1522 55.3702 86.1522 57.3195C86.152 59.2688 84.5716 60.8489 82.6227 60.8489Z" fill="#259EA6"/>
<path d="M43.8941 76.3799L48.6998 84.0439L57.4738 86.2459L51.6698 93.185L52.2866 102.21L43.8941 98.8342L35.5012 102.21L36.118 93.185L30.3145 86.2459L39.0885 84.0439L43.8941 76.3799Z" fill="#259EA6"/>
<path d="M52.2869 105.739C51.8423 105.739 51.3954 105.655 50.9704 105.484L43.8947 102.638L36.8186 105.484C35.6918 105.938 34.4102 105.779 33.4272 105.065C32.4443 104.351 31.8975 103.181 31.9804 101.969L32.5008 94.3601L27.6072 88.5101C26.8279 87.578 26.5825 86.3105 26.9578 85.155C27.3333 83.9995 28.2766 83.1183 29.4553 82.8225L36.8526 80.966L40.904 74.5043C41.5495 73.4747 42.6794 72.8496 43.8944 72.8496C45.1094 72.8496 46.2393 73.4747 46.8848 74.5043L50.9362 80.966L58.3331 82.8225C59.5115 83.1183 60.4549 83.9995 60.8306 85.155C61.2058 86.3105 60.9604 87.578 60.1811 88.5101L55.2879 94.3601L55.8082 101.969C55.8911 103.181 55.3448 104.351 54.3614 105.065C53.7492 105.51 53.0215 105.739 52.2869 105.739ZM36.633 88.2987L38.8258 90.9199C39.4099 91.6188 39.7015 92.5162 39.6398 93.4252L39.4068 96.8348L42.5777 95.5594C43.4231 95.2195 44.3665 95.2195 45.2116 95.5594L48.382 96.8348L48.149 93.4252C48.0869 92.5162 48.3785 91.6188 48.963 90.9199L51.1558 88.2987L47.8411 87.4669C46.9577 87.2452 46.1939 86.6904 45.7099 85.9186L43.8944 83.0231L42.079 85.9186C41.595 86.6904 40.8314 87.2449 39.9478 87.4669L36.633 88.2987Z" fill="#259EA6"/>
<path d="M89.6861 86.6551H69.5685C67.6197 86.6551 66.0391 85.0749 66.0391 83.1256C66.0391 81.1763 67.6195 79.5962 69.5685 79.5962H89.6861C91.6349 79.5962 93.2155 81.1763 93.2155 83.1256C93.2155 85.0749 91.6354 86.6551 89.6861 86.6551Z" fill="#259EA6"/>
<path d="M82.6227 98.9925H69.5685C67.6197 98.9925 66.0391 97.4123 66.0391 95.463C66.0391 93.5137 67.6195 91.9336 69.5685 91.9336H82.6227C84.5716 91.9336 86.1522 93.5137 86.1522 95.463C86.152 97.4126 84.5716 98.9925 82.6227 98.9925Z" fill="#259EA6"/>
<path d="M40.5868 13.4224H15.8809V24.7056H40.5868V13.4224Z" fill="#259EA6"/>
<path d="M104.117 13.4224H79.4111V24.7056H104.117V13.4224Z" fill="#259EA6"/>
<path d="M75.8822 24.7059C75.8822 26.6552 77.4626 28.2354 79.4116 28.2354H104.119C106.067 28.2354 107.648 26.6552 107.648 24.7059V13.4227C107.648 11.4734 106.068 9.8932 104.119 9.8932H82.9411V3.52945C82.9409 1.58016 81.3605 0 79.4116 0H40.5879C38.6391 0 37.0584 1.58016 37.0584 3.52945V9.89344H15.881C13.9322 9.89344 12.3516 11.4736 12.3516 13.4229V24.7062V116.471C12.3516 118.42 13.932 120 15.881 120H104.119C106.067 120 107.648 118.42 107.648 116.471V44.982C107.648 43.0327 106.068 41.4525 104.119 41.4525C102.169 41.4525 100.589 43.0327 100.589 44.982V112.941H19.4105V28.2354H40.5879H65.4244C67.3732 28.2354 68.9538 26.6552 68.9538 24.7059C68.9538 22.7566 67.3734 21.1765 65.4244 21.1765H44.1173V13.4227V7.05891H75.882V13.4227V24.7059H75.8822ZM19.4105 16.9521H37.0587V21.1765H19.4105V16.9521ZM100.589 21.1765H82.9409V16.9521H100.589V21.1765Z" fill="#259EA6"/>
</g>
<defs>
<filter id="filter0_d_1358_274" x="-4" y="0" width="128" height="128" filterUnits="userSpaceOnUse" color-interpolation-filters="sRGB">
<feFlood flood-opacity="0" result="BackgroundImageFix"/>
<feColorMatrix in="SourceAlpha" type="matrix" values="0 0 0 0 0 0 0 0 0 0 0 0 0 0 0 0 0 0 127 0" result="hardAlpha"/>
<feOffset dy="4"/>
<feGaussianBlur stdDeviation="2"/>
<feComposite in2="hardAlpha" operator="out"/>
<feColorMatrix type="matrix" values="0 0 0 0 0 0 0 0 0 0 0 0 0 0 0 0 0 0 0.25 0"/>
<feBlend mode="normal" in2="BackgroundImageFix" result="effect1_dropShadow_1358_274"/>
<feBlend mode="normal" in="SourceGraphic" in2="effect1_dropShadow_1358_274" result="shape"/>
</filter>
<clipPath id="clip0_1358_274">
<rect width="120" height="120" fill="white"/>
</clipPath>
</defs>
</svg>
