<svg width="30" height="30" viewBox="0 0 100 100" fill="none" xmlns="http://www.w3.org/2000/svg">
<path d="M94.1663 81.6667V1.66667C94.1663 0.666667 93.4997 0 92.4997 0H17.4997C16.4997 0 15.833 0.666667 15.833 1.66667V25H19.1663V3.33333H90.833V80H75.833C74.833 80 74.1663 80.6667 74.1663 81.6667V96.6667H19.1663V71.6667H15.833V98.3333C15.833 99.3333 16.4997 100 17.4997 100H75.833C76.333 100 76.6663 99.8333 76.9997 99.5L93.6663 82.8333C93.833 82.6667 93.833 82.5 93.9997 82.3333V82.1667C94.1663 82 94.1663 81.8333 94.1663 81.6667ZM77.4997 83.3333H88.4997L82.9997 88.8333L77.4997 94.3333V83.3333Z" fill="#3AA88E"/>
<path d="M27.4997 63.3332H37.4997H44.1663V59.9998H39.1663V28.3332C39.1663 27.3332 38.4997 26.6665 37.4997 26.6665H27.4997C26.4997 26.6665 25.833 27.3332 25.833 28.3332V38.3332H17.4997C16.4997 38.3332 15.833 38.9998 15.833 39.9998V46.6665H7.49967C6.49967 46.6665 5.83301 47.3332 5.83301 48.3332V61.6665C5.83301 62.6665 6.49967 63.3332 7.49967 63.3332H17.4997H27.4997ZM29.1663 29.9998H35.833V59.9998H29.1663V39.9998V29.9998ZM19.1663 41.6665H25.833V59.9998H19.1663V48.3332V41.6665ZM9.16634 49.9998H15.833V59.9998H9.16634V49.9998Z" fill="#3AA88E"/>
<path d="M84.1663 40V11.6667C84.1663 10.6667 83.4997 10 82.4997 10H47.4997C46.4997 10 45.833 10.6667 45.833 11.6667V40C45.833 41 46.4997 41.6667 47.4997 41.6667H82.4997C83.4997 41.6667 84.1663 41 84.1663 40ZM80.833 20H60.833V13.3333H80.833V20ZM57.4997 13.3333V20H49.1663C49.1663 17.3333 49.1663 13.3333 49.1663 13.3333H57.4997ZM49.1663 23.3333H57.4997V38.3333H49.1663C49.1663 38.3333 49.1663 30.5 49.1663 23.3333ZM60.833 38.3333V23.3333H80.833V38.3333H60.833Z" fill="#3AA88E"/>
<path d="M82.5 46.6665H47.5V49.9998H82.5V46.6665Z" fill="#3AA88E"/>
<path d="M82.5 55H47.5V58.3333H82.5V55Z" fill="#3AA88E"/>
<path d="M82.5 63.3335H47.5V66.6668H82.5V63.3335Z" fill="#3AA88E"/>
<path d="M34.166 10H24.166V13.3333H34.166V10Z" fill="#3AA88E"/>
<path d="M39.166 18.3335H24.166V21.6668H39.166V18.3335Z" fill="#3AA88E"/>
<path d="M35.8327 71.6665H24.166V74.9998H35.8327V71.6665Z" fill="#3AA88E"/>
<path d="M52.4997 71.6665H40.833V74.9998H52.4997V71.6665Z" fill="#3AA88E"/>
<path d="M69.1667 71.6665H57.5V74.9998H69.1667V71.6665Z" fill="#3AA88E"/>
<path d="M35.8327 80H24.166V83.3333H35.8327V80Z" fill="#3AA88E"/>
<path d="M52.4997 80H40.833V83.3333H52.4997V80Z" fill="#3AA88E"/>
<path d="M69.1667 80H57.5V83.3333H69.1667V80Z" fill="#3AA88E"/>
<path d="M35.8327 88.3335H24.166V91.6668H35.8327V88.3335Z" fill="#3AA88E"/>
<path d="M52.4997 88.3335H40.833V91.6668H52.4997V88.3335Z" fill="#3AA88E"/>
<path d="M69.1667 88.3335H57.5V91.6668H69.1667V88.3335Z" fill="#3AA88E"/>
</svg>
