<svg width="30" height="30" viewBox="0 0 120 120" fill="none" xmlns="http://www.w3.org/2000/svg">
<path d="M41.1209 63.5999C49.7159 56.9699 58.1609 50.3999 66.6719 43.9379C68.0489 42.8909 67.8239 41.9909 67.2899 40.6559C65.2859 35.6189 64.1519 30.3899 65.0549 24.9689C65.6328 21.467 66.9147 18.1185 68.823 15.1259C70.7313 12.1333 73.2264 9.55862 76.1577 7.5574C79.089 5.55619 82.3956 4.17 85.8777 3.48257C89.3598 2.79515 92.945 2.82076 96.4169 3.55787C110.973 6.55787 119.916 20.9069 116.217 35.6009C113.169 47.7179 105.327 56.5589 95.8499 64.0619C90.1769 68.5619 91.5929 68.7299 86.1149 64.0259C80.3759 59.0969 75.3149 53.3759 69.6149 47.6369L44.6819 66.8669C49.9709 73.1669 51.6569 80.3189 49.8059 88.4189L83.6399 95.1929C83.8049 93.3689 83.7959 91.6889 84.1289 90.0779C86.0339 80.8859 95.3999 74.9429 104.319 77.2019C113.964 79.6409 119.229 89.0279 116.208 98.6369C113.715 106.572 108.108 112.122 101.55 116.784C100.98 117.189 99.4679 116.865 98.7479 116.367C93.4819 112.782 89.1462 107.994 86.0999 102.399C85.383 101.204 84.2318 100.332 82.8869 99.9659C72.3419 97.7129 61.7459 95.6909 51.1889 93.4889C49.1219 93.0569 48.0809 93.4649 47.1029 95.4929C42.8669 104.277 36.1499 110.937 28.2719 116.493C27.6239 116.949 26.2169 117.201 25.6859 116.82C15.0989 109.191 6.12295 100.272 3.48595 86.8199C1.53895 76.9529 5.01595 68.9579 13.1129 63.2789C21.2999 57.5159 30.0539 57.2999 38.8499 62.2229C39.5369 62.6069 40.1999 63.0359 41.1209 63.5999ZM90.9209 61.8989C98.0939 56.5289 104.319 50.5859 108.303 42.7589C110.055 39.332 111.308 35.6719 112.023 31.8899C114.147 20.3129 106.623 10.1939 94.6739 8.01887C83.1629 5.91887 72.3059 13.0259 70.0019 24.1499C68.7359 30.2609 70.1129 35.9669 72.7919 41.4059C76.9289 49.7759 83.3519 56.1569 90.9299 61.8959L90.9209 61.8989ZM26.7419 111.87C35.6549 104.787 43.4099 97.1219 45.4319 85.4969C46.7669 77.8079 44.3399 71.3669 37.7969 66.8519C31.3859 62.4269 22.0499 62.4419 15.6479 66.8849C9.11395 71.4149 6.71395 77.8739 8.05795 85.5509C10.0889 97.1699 17.8439 104.826 26.7419 111.87ZM100.437 111.825C105.759 107.391 110.337 102.843 111.942 96.1049C113.16 90.9569 111.501 86.2289 107.559 83.5049C103.617 80.7809 97.5869 80.7209 93.5399 83.3879C89.5499 86.0189 87.7649 90.7859 88.9169 95.8919C90.4649 102.756 94.9529 107.481 100.437 111.825Z" fill="#259EA6"/>
<path d="M91.0711 16.5692C97.6051 16.6202 103.503 22.4012 103.35 28.6082C103.197 34.7102 97.2781 40.3082 90.9661 40.3292C84.5341 40.3292 78.5101 34.5332 78.5461 28.3532C78.6001 22.0952 84.5131 16.5182 91.0711 16.5692ZM91.0711 21.3272C86.4361 21.2852 83.2981 24.1622 83.3131 28.4342C83.3311 32.5352 86.4601 35.5052 90.8311 35.5682C95.3071 35.6342 98.6101 32.5682 98.5951 28.3682C98.5801 24.1682 95.5321 21.3692 91.0651 21.3272H91.0711Z" fill="#259EA6"/>
<path d="M38.0999 81.9391C38.0999 87.7351 32.6999 92.8381 26.6369 92.7961C20.7059 92.7541 15.4349 87.6961 15.3899 82.0321C15.3449 76.2211 20.6849 70.9951 26.6939 70.9621C32.7029 70.9291 38.0999 76.1461 38.0999 81.9391ZM26.8379 88.0351C30.8159 87.9991 33.3179 85.6561 33.3329 81.9571C33.3329 78.1741 30.6509 75.6571 26.6339 75.7201C22.7339 75.7741 20.1689 78.2041 20.1419 81.8671C20.1179 85.6951 22.6979 88.0711 26.8379 88.0351Z" fill="#259EA6"/>
<path d="M100.536 86.0248C104.22 86.0608 107.694 89.4987 107.592 93.0057C107.496 96.3717 104.007 99.7197 100.539 99.7737C96.9779 99.8277 93.3389 96.3447 93.3389 92.8737C93.3299 89.3337 96.8549 85.9858 100.536 86.0248ZM100.893 89.7807C99.5699 91.0947 98.1599 91.9558 98.2709 92.5048C98.4659 93.4438 99.5069 94.6408 100.398 94.8508C101.025 95.0008 102.447 93.8158 102.675 92.9938C102.858 92.3248 101.799 91.3107 100.893 89.7807Z" fill="#259EA6"/>
</svg>
