<svg width="30" height="30" viewBox="0 0 120 120" fill="none" xmlns="http://www.w3.org/2000/svg">
<path d="M43.6141 58.4056C43.6141 59.5094 42.731 60.3925 41.6271 60.3925H34.1701C33.0662 60.3925 32.1832 59.5094 32.1832 58.4056V50.9485C32.1832 49.8447 33.0662 48.9616 34.1701 48.9616H41.6271C42.731 48.9616 43.6141 49.8447 43.6141 50.9485V58.4056ZM59.1905 50.973C59.1905 49.8692 58.3074 48.9861 57.2036 48.9861H49.7465C48.6427 48.9861 47.7596 49.8692 47.7596 50.973V58.4301C47.7596 59.534 48.6427 60.417 49.7465 60.417H57.2036C58.3074 60.417 59.1905 59.534 59.1905 58.4301V50.973ZM74.767 50.973C74.767 49.8692 73.8839 48.9861 72.7801 48.9861H65.323C64.2191 48.9861 63.3361 49.8692 63.3361 50.973V58.4301C63.3361 59.534 64.2191 60.417 65.323 60.417H72.7801C73.8839 60.417 74.767 59.534 74.767 58.4301V50.973ZM43.6141 66.1325C43.6141 65.0286 42.731 64.1456 41.6271 64.1456H34.1701C33.0662 64.1456 32.1832 65.0286 32.1832 66.1325V73.5896C32.1832 74.6934 33.0662 75.5765 34.1701 75.5765H41.6271C42.731 75.5765 43.6141 74.6934 43.6141 73.5896V66.1325ZM59.1905 66.1325C59.1905 65.0286 58.3074 64.1456 57.2036 64.1456H49.7465C48.6427 64.1456 47.7596 65.0286 47.7596 66.1325V73.5896C47.7596 74.6934 48.6427 75.5765 49.7465 75.5765H57.2036C58.3074 75.5765 59.1905 74.6934 59.1905 73.5896V66.1325ZM72.7801 64.1456H65.323C64.2191 64.1456 63.3361 65.0286 63.3361 66.1325V73.5896C63.3361 74.6934 64.2191 75.5765 65.323 75.5765H72.7801C73.8839 75.5765 74.767 74.6934 74.767 73.5896V66.1325C74.767 65.0286 73.8839 64.1456 72.7801 64.1456ZM26.0262 79.305H18.5936C17.4898 79.305 16.6067 80.1881 16.6067 81.2919V88.749C16.6067 89.8528 17.4898 90.7359 18.5936 90.7359H26.0507C27.1545 90.7359 28.0376 89.8528 28.0376 88.749V81.2919C28.0376 80.1881 27.13 79.305 26.0262 79.305ZM28.0376 66.1325C28.0376 65.0286 27.1545 64.1456 26.0507 64.1456H18.5936C17.4898 64.1456 16.6067 65.0286 16.6067 66.1325V73.5896C16.6067 74.6934 17.4898 75.5765 18.5936 75.5765H26.0507C27.1545 75.5765 28.0376 74.6934 28.0376 73.5896V66.1325ZM57.2036 79.305H49.7465C48.6427 79.305 47.7596 80.1881 47.7596 81.2919V88.749C47.7596 89.8528 48.6427 90.7359 49.7465 90.7359H57.2036C58.3074 90.7359 59.1905 89.8528 59.1905 88.749V81.2919C59.1905 80.1881 58.3074 79.305 57.2036 79.305ZM41.6271 79.305H34.1701C33.0662 79.305 32.1832 80.1881 32.1832 81.2919V88.749C32.1832 89.8528 33.0662 90.7359 34.1701 90.7359H41.6271C42.731 90.7359 43.6141 89.8528 43.6141 88.749V81.2919C43.6141 80.1881 42.731 79.305 41.6271 79.305ZM88.3565 60.417C89.4603 60.417 90.3434 59.534 90.3434 58.4301V50.973C90.3434 49.8692 89.4603 48.9861 88.3565 48.9861H80.8994C79.7956 48.9861 78.9125 49.8692 78.9125 50.973V58.4301C78.9125 59.534 79.7956 60.417 80.8994 60.417H88.3565ZM11.7007 106.926H68.2911C67.3835 104.08 66.8684 101.038 66.8438 97.8986H11.7007C10.2289 97.8986 9.05151 96.6967 9.05151 95.2494V41.9461H97.776V66.7457C100.916 66.7703 103.957 67.2363 106.803 68.1439V23.2788C106.803 16.8275 101.554 11.5781 95.1022 11.5781H82.0033V4.36634C82.0033 2.01147 80.0899 0.0981445 77.7351 0.0981445H71.0875C68.7326 0.0981445 66.8193 2.01147 66.8193 4.36634V11.6026H39.9836V4.36634C39.9836 2.01147 38.0703 0.0981445 35.7155 0.0981445H29.0679C26.713 0.0981445 24.7997 2.01147 24.7997 4.36634V11.6026H11.7007C5.24939 11.6026 0 16.852 0 23.3034V95.2494C0 101.676 5.24939 106.926 11.7007 106.926ZM120 97.5552C120 109.894 109.992 119.902 97.6533 119.902C85.3148 119.902 75.3066 109.894 75.3066 97.5552C75.3066 85.2167 85.3148 75.2085 97.6533 75.2085C109.992 75.2085 120 85.2167 120 97.5552ZM108.937 91.7662C108.937 91.0548 108.667 90.368 108.152 89.8774C107.097 88.8226 105.405 88.8226 104.35 89.8774L94.6361 99.5912L90.9076 95.8627C89.8528 94.8079 88.1603 94.8079 87.1055 95.8627C86.5904 96.3778 86.3205 97.0401 86.3205 97.7515C86.3205 98.4628 86.5904 99.1497 87.1055 99.6403L92.7228 105.258C93.7776 106.312 95.4702 106.312 96.5249 105.258L108.128 93.655C108.667 93.1644 108.937 92.4775 108.937 91.7662Z" fill="#259EA6"/>
</svg>
