<svg width="30" height="30" viewBox="0 0 120 120" fill="none" xmlns="http://www.w3.org/2000/svg">
<path d="M70.4083 0H54.4899C44.0943 0 34.2504 4.17257 26.7717 11.749C19.4855 19.1307 15.3063 29.1304 15.3063 39.1837V53.6351L10.4558 77.8871C10.3118 78.6066 10.4982 79.3526 10.9633 79.92C11.4283 80.4874 12.1233 80.8163 12.8571 80.8163H21.2806C23.3179 84.4937 23.0948 87.7893 22.8959 90.7281C22.7191 93.3409 22.5364 96.0429 24.4077 98.0452C25.9351 99.6796 28.4152 100.408 32.4489 100.408H59.3877V120H61.8366H64.2856H104.694H107.143H109.592V39.1837C109.592 17.5776 92.0142 0 70.4083 0ZM80.2566 48.4758C80.2569 48.4749 80.2571 48.4736 80.2574 48.4727C80.277 48.3791 80.3034 48.2882 80.3333 48.1991C80.3401 48.1783 80.3482 48.158 80.3558 48.1374C80.3828 48.0639 80.4129 47.9922 80.4467 47.9224C80.4526 47.9099 80.4565 47.8969 80.4626 47.8844L86.585 35.6395C86.9999 34.8096 87.848 34.2857 88.7754 34.2857C89.7028 34.2857 90.5512 34.8098 90.9658 35.6395L97.0882 47.8844C97.0944 47.8969 97.0983 47.9099 97.1041 47.9224C97.1377 47.9922 97.1678 48.0637 97.1948 48.1371C97.2023 48.1577 97.2104 48.1783 97.2175 48.1991C97.2474 48.288 97.2736 48.3786 97.2932 48.4719C97.2935 48.4734 97.2939 48.4746 97.2942 48.4761C97.2952 48.4807 97.2964 48.4851 97.2974 48.4898H80.2527C80.2544 48.4849 80.2557 48.4807 80.2566 48.4758ZM80.2042 53.8776H86.0818V95.2653H80.2042V53.8776ZM78.9797 37.9592H56.9389V41.6327H69.1838C70.5364 41.6327 71.6328 42.7291 71.6328 44.0816V73.4694H66.7348V46.5306H56.9389V60H52.041V51.4286H36.1226V64.898H31.2246V48.9796C31.2246 47.627 32.3211 46.5306 33.6736 46.5306H52.041V37.9592H39.7961V33.0612H63.0614V17.1429H67.9593V33.0612H78.9797V37.9592ZM97.3471 107.755C97.3471 109.107 96.2507 110.204 94.8981 110.204H82.6532C81.3006 110.204 80.2042 109.107 80.2042 107.755V100.653H97.3471V107.755ZM97.3471 95.2653H91.4698V53.8776H97.3471V95.2653Z" fill="#259EA6"/>
</svg>
