<svg width="30" height="30" viewBox="0 0 120 120" fill="none" xmlns="http://www.w3.org/2000/svg">
<path d="M81.6537 44.9341H71.8809V48.4389H81.6537V44.9341Z" fill="#259EA6"/>
<path d="M13.8051 83.2728C16.8947 83.2728 19.3993 80.7682 19.3993 77.6787C19.3993 74.5891 16.8947 72.0845 13.8051 72.0845C10.7155 72.0845 8.21094 74.5891 8.21094 77.6787C8.21094 80.7682 10.7155 83.2728 13.8051 83.2728Z" fill="#259EA6"/>
<path d="M26.394 91.9764C29.4836 91.9764 31.9882 89.4718 31.9882 86.3823C31.9882 83.2927 29.4836 80.7881 26.394 80.7881C23.3044 80.7881 20.7998 83.2927 20.7998 86.3823C20.7998 89.4718 23.3044 91.9764 26.394 91.9764Z" fill="#259EA6"/>
<path d="M41.2182 97.1527C44.3078 97.1527 46.8124 94.6481 46.8124 91.5585C46.8124 88.469 44.3078 85.9644 41.2182 85.9644C38.1286 85.9644 35.624 88.469 35.624 91.5585C35.624 94.6481 38.1286 97.1527 41.2182 97.1527Z" fill="#259EA6"/>
<path d="M56.8637 98.6849C59.9533 98.6849 62.4579 96.1803 62.4579 93.0908C62.4579 90.0012 59.9533 87.4966 56.8637 87.4966C53.7741 87.4966 51.2695 90.0012 51.2695 93.0908C51.2695 96.1803 53.7741 98.6849 56.8637 98.6849Z" fill="#259EA6"/>
<path d="M72.6264 96.9193C75.716 96.9193 78.2206 94.4147 78.2206 91.3251C78.2206 88.2356 75.716 85.731 72.6264 85.731C69.5368 85.731 67.0322 88.2356 67.0322 91.3251C67.0322 94.4147 69.5368 96.9193 72.6264 96.9193Z" fill="#259EA6"/>
<path d="M85.9233 90.3314C89.0129 90.3314 91.5175 87.8268 91.5175 84.7372C91.5175 81.6477 89.0129 79.1431 85.9233 79.1431C82.8337 79.1431 80.3291 81.6477 80.3291 84.7372C80.3291 87.8268 82.8337 90.3314 85.9233 90.3314Z" fill="#259EA6"/>
<path d="M97.2162 80.9198C100.306 80.9198 102.81 78.4152 102.81 75.3256C102.81 72.236 100.306 69.7314 97.2162 69.7314C94.1267 69.7314 91.6221 72.236 91.6221 75.3256C91.6221 78.4152 94.1267 80.9198 97.2162 80.9198Z" fill="#259EA6"/>
<path d="M6.04969 100.88C9.39085 100.88 12.0994 98.1711 12.0994 94.83C12.0994 91.4888 9.39085 88.7803 6.04969 88.7803C2.70854 88.7803 0 91.4888 0 94.83C0 98.1711 2.70854 100.88 6.04969 100.88Z" fill="#259EA6"/>
<path d="M20.0995 110.073C23.4407 110.073 26.1492 107.364 26.1492 104.023C26.1492 100.682 23.4407 97.9731 20.0995 97.9731C16.7583 97.9731 14.0498 100.682 14.0498 104.023C14.0498 107.364 16.7583 110.073 20.0995 110.073Z" fill="#259EA6"/>
<path d="M36.4678 115.648C39.8069 115.648 42.5137 112.941 42.5137 109.602C42.5137 106.263 39.8069 103.556 36.4678 103.556C33.1287 103.556 30.4219 106.263 30.4219 109.602C30.4219 112.941 33.1287 115.648 36.4678 115.648Z" fill="#259EA6"/>
<path d="M54.3457 117.259C57.6848 117.259 60.3917 114.552 60.3917 111.213C60.3917 107.874 57.6848 105.167 54.3457 105.167C51.0067 105.167 48.2998 107.874 48.2998 111.213C48.2998 114.552 51.0067 117.259 54.3457 117.259Z" fill="#259EA6"/>
<path d="M72.1669 116.051C75.508 116.051 78.2166 113.342 78.2166 110.001C78.2166 106.66 75.508 103.952 72.1669 103.952C68.8257 103.952 66.1172 106.66 66.1172 110.001C66.1172 113.342 68.8257 116.051 72.1669 116.051Z" fill="#259EA6"/>
<path d="M88.3319 110.283C91.6731 110.283 94.3816 107.575 94.3816 104.234C94.3816 100.893 91.6731 98.1841 88.3319 98.1841C84.9908 98.1841 82.2822 100.893 82.2822 104.234C82.2822 107.575 84.9908 110.283 88.3319 110.283Z" fill="#259EA6"/>
<path d="M102.005 101.392C105.344 101.392 108.051 98.6848 108.051 95.3457C108.051 92.0067 105.344 89.2998 102.005 89.2998C98.6658 89.2998 95.959 92.0067 95.959 95.3457C95.959 98.6848 98.6658 101.392 102.005 101.392Z" fill="#259EA6"/>
<path d="M113.954 89.7061C117.293 89.7061 120 86.9993 120 83.6602C120 80.3211 117.293 77.6143 113.954 77.6143C110.615 77.6143 107.908 80.3211 107.908 83.6602C107.908 86.9993 110.615 89.7061 113.954 89.7061Z" fill="#259EA6"/>
<path d="M57.4588 83.8601C82.0228 83.8601 91.758 71.4332 95.1574 64.9882V62.7935C92.9062 68.0338 84.1799 82.9189 57.4588 82.9189C25.1473 82.9189 14.3844 65.5378 14.2752 65.3609L14.2188 65.3985V66.9194C17.1664 70.7744 29.2508 83.8601 57.4588 83.8601Z" fill="#259EA6"/>
<path d="M56.3746 101.58C86.2579 101.58 100.861 84.978 104.923 79.4102V77.7764C102.476 81.477 88.2833 100.631 56.3746 100.631C22.1959 100.631 7.83402 82.9828 6.92676 81.8158V83.2614C10.4391 87.1991 25.4222 101.58 56.3746 101.58Z" fill="#259EA6"/>
<path d="M52.8173 43.432C56.5306 43.432 59.5409 40.4217 59.5409 36.7084C59.5409 32.9951 56.5306 29.9849 52.8173 29.9849C49.104 29.9849 46.0938 32.9951 46.0938 36.7084C46.0938 40.4217 49.104 43.432 52.8173 43.432Z" fill="#259EA6"/>
<path d="M46.734 55.6744L46.8583 58.1817H47.2121V59.7101V60.8395L48.6615 68.2218H47.3025V70.3413H52.4374V68.2218H52.027V67.4651V67.1677V60.8395H53.7174V67.1677V67.4651V68.1541H53.1451V70.2698H58.5172V68.1541H57.1017L58.5323 60.8432V59.7139V58.1854H58.9577L59.3002 52.5611H87.5158V14.8249H67.8308L60.2941 7.29197C60.5727 6.83269 60.7496 6.30188 60.7496 5.72213C60.7496 4.07325 59.4094 2.73682 57.768 2.73682C56.1192 2.73682 54.7865 4.07325 54.7865 5.72213C54.7865 6.21906 54.9183 6.6821 55.1328 7.09244L47.3966 14.8249H21.7598V52.5498H46.4442L46.734 55.6744ZM55.9008 8.04112C56.4128 8.45146 57.0565 8.70745 57.7643 8.70745C58.393 8.70745 58.9765 8.50793 59.4583 8.17665L66.1104 14.8287H49.117L55.9008 8.04112ZM24.1879 50.1217V17.2531H85.0877V50.1217H59.4471L59.5826 47.9043L73.0673 41.8923L71.5427 38.9559L61.303 43.9854L55.2646 44.4522L52.7047 47.4262L50.2238 44.4522L46.0865 44.9906L34.7476 39.419L33.1589 42.6565L46.1204 49.0262L46.2221 50.1254H24.1879V50.1217Z" fill="#259EA6"/>
</svg>
