<svg width="30" height="30" viewBox="0 0 120 120" fill="none" xmlns="http://www.w3.org/2000/svg">
<g clip-path="url(#clip0_1358_372)">
<path d="M77.9746 62.6896L77.0158 53.9998H83.3802V47.3938L75.6681 41.7616L75.5889 41.0557C75.9475 38.4284 77.1441 34.31 77.3215 30.1878C77.6273 23.1703 78.035 0 57.8091 0C55.6839 0.00377489 53.1849 0.260467 52.1053 0.747428C51.0256 1.23439 50.8331 2.33666 50.131 2.57448C49.4024 2.81607 48.3643 2.7217 47.7188 3.03124C37.7041 7.85555 38.0513 19.6219 38.0513 19.6219L39.4707 42.8035L32.4117 47.9638V54.5698H38.41L37.5682 62.6896H11.4912V75.3242H19.6525V119.996H100.341V75.3242H108.502V62.6896H77.9746ZM58.0545 60.7304L45.5407 58.4504V54.5698H47.2772V47.9638H45.5407V40.0365L58.0545 42.3128L70.5683 40.0365V47.3938H68.5034V53.9998H70.5683V58.4504L58.0545 60.7304ZM62.373 34.4119V37.6923L58.0583 38.4775L53.3548 37.6168V34.2194C47.179 32.2866 42.6341 26.7866 42.1282 20.1164L46.3561 20.7241V23.31H57.4467V21.4867H59.4021V23.3062H70.489V20.7883L74.0298 20.2447C73.8147 25.824 70.9306 33.2983 62.373 34.4119ZM47.5905 22.0793V17.6854H56.2161V22.0793H47.5905ZM60.6403 22.0793V17.6854H69.2584V22.0793H60.6403ZM42.1849 17.3041C46.6468 16.9983 51.6825 13.4877 52.0751 8.59543C57.7148 13.2687 65.7024 13.4952 72.3764 14.0917C73.2031 14.4843 73.8147 16.1603 73.9845 18.3762L70.4928 18.9235V16.4548H59.4059V19.0217H57.4505V16.4548H46.3561V18.8631L42.0716 18.244C42.1094 17.9307 42.1547 17.6174 42.1849 17.3041ZM44.2761 62.0554L47.7792 62.6896H44.1931L44.2761 62.0554ZM68.3297 62.6896L71.2477 62.1574L71.3232 62.6896H68.3297Z" fill="#259EA6"/>
</g>
<defs>
<clipPath id="clip0_1358_372">
<rect width="120" height="119.996" fill="white"/>
</clipPath>
</defs>
</svg>
