<svg width="101" height="110" viewBox="0 0 101 110" fill="none" xmlns="http://www.w3.org/2000/svg">
<path d="M75.0743 81.7747C72.8296 80.7078 67.3024 77.8818 64.9202 75.854V70.3465C67.7513 68.8956 70.2778 66.9816 72.4511 64.6392H87.5408V22.1134C87.5408 9.91996 76.5477 0 63.0352 0H37.9012C24.3887 0 13.3956 9.91996 13.3956 22.1134V64.6392H28.485C30.6586 66.9814 33.1851 68.8956 36.0162 70.3465V75.854C33.6398 77.8771 25.2696 81.9473 24.9203 82.0679C1.34788 89.2887 0.838918 102.06 0.828864 102.6L0.828613 110H100.108V102.62C100.104 102.061 99.7421 88.8823 75.0743 81.7747ZM17.1657 22.1134C17.1657 11.7959 26.4678 3.40206 37.9012 3.40206H63.0352C74.4686 3.40206 83.7707 11.7959 83.7707 22.1134V61.2371H75.1427C78.2897 56.5377 80.0006 50.8159 80.0006 44.7938V31.3099L48.5832 15.8459V18.7113C48.5832 18.9858 48.2283 21.5294 35.935 26.2274C29.1951 28.803 22.3461 30.6723 22.2777 30.6909L20.9358 31.0552V44.7938C20.9358 50.8159 22.6467 56.5377 25.7937 61.2371H17.1657V22.1134ZM30.9132 61.9447C30.8599 61.8762 30.8069 61.818 30.7581 61.7687C26.8553 57.2606 24.7059 51.2326 24.7059 44.7938V33.5706C27.067 32.8911 32.1885 31.352 37.3792 29.37C46.4862 25.8922 50.1286 23.2034 51.5294 21.1713L76.2305 33.3293V44.7938C76.2305 51.2321 74.0811 57.2601 70.1788 61.7681C70.13 61.8173 70.0765 61.876 70.0229 61.945C67.8194 64.4577 65.1801 66.4339 62.1771 67.8194L61.9135 67.941L61.8936 67.9589C58.4389 69.5186 54.596 70.3093 50.4682 70.3093C46.3442 70.3093 42.504 69.52 39.0428 67.9589L38.7593 67.8194C35.7563 66.4339 33.1167 64.4575 30.9132 61.9447ZM39.307 77.6797L39.7863 77.1955V71.9679C43.1087 73.1244 46.6891 73.7113 50.4682 73.7113C54.2491 73.7113 57.8312 73.1239 61.1501 71.9684V77.1955L61.6294 77.6797C63.8148 79.887 68.9615 82.6225 71.7253 84.0062L65.8354 92.9897H34.3621L28.3372 84.4385C30.7121 83.2791 36.8624 80.1487 39.307 77.6797ZM63.6085 96.3918L56.9321 106.598H43.9605L36.7611 96.3918H63.6085ZM4.59871 102.661C4.61077 102.463 4.8214 99.8106 7.38682 96.4695C11.5679 91.024 18.8914 87.665 24.7737 85.7224L39.4909 106.598H4.59871V102.661ZM96.3377 106.598H61.3102L68.5031 95.6022L75.1953 85.3949C81.3983 87.313 89.1253 90.682 93.4802 96.2749C96.1741 99.7346 96.3314 102.503 96.3374 102.647L96.3377 106.598Z" fill="#231F20"/>
</svg>
